STARTFONT 2.1
FONT -hp-batang-bold-r-normal--24-240-75-75-c-130-ksc5636.1989-0
SIZE 24 75 75
FONTBOUNDINGBOX 12 24 0 -2

STARTPROPERTIES 23
FONTNAME_REGISTRY ""
FOUNDRY "HP"
FAMILY_NAME "Batang"
WEIGHT_NAME "Bold"
SLANT "R"
SETWIDTH_NAME "Normal"
ADD_STYLE_NAME ""
PIXEL_SIZE 24
POINT_SIZE 240
RESOLUTION_X 75
RESOLUTION_Y 75
SPACING "C"
AVERAGE_WIDTH 120
CHARSET_REGISTRY "KSC5636.1989"
CHARSET_ENCODING "0"
COPYRIGHT "Copyright (c) 1999 Samsung Hewlett-Packard Company."
WEIGHT 316
X_HEIGHT 22
QUAD_WIDTH 12
_HP_ASXVERSION "@(#) ASX 3.00 $Revision: 13.9 $ bat24a"
DEFAULT_CHAR 32
FONT_DESCENT 2
FONT_ASCENT 22
ENDPROPERTIES

CHARS 256

STARTCHAR C000
ENCODING 0
SWIDTH 451 0
DWIDTH 12 0
BBX 12 24 0 -2
BITMAP
0000
0000
0000
0000
0000
0000
0000
0000
0000
0000
0000
0000
0000
0000
0000
0000
0000
0000
0000
0000
0000
0000
0000
0000
ENDCHAR

STARTCHAR C001
ENCODING 1
SWIDTH 451 0
DWIDTH 12 0
BBX 12 24 0 -2
BITMAP
0000
0000
0000
0000
0000
1FC0
7070
6030
DDD0
B750
C010
C010
B050
D8D0
6FB0
7070
1FC0
0000
0000
0000
0000
0000
0000
0000
ENDCHAR

STARTCHAR C002
ENCODING 2
SWIDTH 451 0
DWIDTH 12 0
BBX 12 24 0 -2
BITMAP
0000
0000
0000
0000
0000
0F80
3FE0
7FF0
6730
D8D0
FFF0
FFF0
DFD0
6FB0
7070
38E0
0F80
0000
0000
0000
0000
0000
0000
0000
ENDCHAR

STARTCHAR C003
ENCODING 3
SWIDTH 451 0
DWIDTH 12 0
BBX 12 24 0 -2
BITMAP
0000
0000
0000
0000
0000
0000
3CF0
7DF0
7FF0
7FF0
7FF0
3FF0
1FE0
0FC0
0780
0300
0000
0000
0000
0000
0000
0000
0000
0000
ENDCHAR

STARTCHAR C004
ENCODING 4
SWIDTH 451 0
DWIDTH 12 0
BBX 12 24 0 -2
BITMAP
0000
0000
0000
0000
0000
0000
0300
0780
0FC0
1FE0
3FF0
7FF0
3FF0
1FE0
0FC0
0780
0300
0000
0000
0000
0000
0000
0000
0000
ENDCHAR

STARTCHAR C005
ENCODING 5
SWIDTH 451 0
DWIDTH 12 0
BBX 12 24 0 -2
BITMAP
0000
0000
0000
0000
0700
0F80
1FC0
1FC0
0F80
76F0
FFF0
FFF0
FFF0
76F0
0700
0F80
3FE0
0000
0000
0000
0000
0000
0000
0000
ENDCHAR

STARTCHAR C006
ENCODING 6
SWIDTH 451 0
DWIDTH 12 0
BBX 12 24 0 -2
BITMAP
0000
0000
0000
0000
0000
0700
0F80
1FC0
3FE0
7FF0
FFF0
FFF0
FFF0
76F0
0700
0F80
3FE0
0000
0000
0000
0000
0000
0000
0000
ENDCHAR

STARTCHAR C007
ENCODING 7
SWIDTH 451 0
DWIDTH 12 0
BBX 12 24 0 -2
BITMAP
0000
0000
0000
0000
0000
0000
0000
0000
0780
1FE0
1FE0
3FF0
3FF0
1FE0
1FE0
0780
0000
0000
0000
0000
0000
0000
0000
0000
ENDCHAR

STARTCHAR C008
ENCODING 8
SWIDTH 451 0
DWIDTH 12 0
BBX 12 24 0 -2
BITMAP
0000
0000
0000
0000
FFF0
FFF0
FFF0
FFF0
FCF0
F030
F030
E010
E010
F030
F030
FCF0
FFF0
FFF0
FFF0
FFF0
0000
0000
0000
0000
ENDCHAR

STARTCHAR C009
ENCODING 9
SWIDTH 451 0
DWIDTH 12 0
BBX 12 24 0 -2
BITMAP
0000
0000
0000
0000
0000
0000
0000
0F80
3FE0
38E0
7070
7070
7070
7070
38E0
3FE0
0F80
0000
0000
0000
0000
0000
0000
0000
ENDCHAR

STARTCHAR C010
ENCODING 10
SWIDTH 451 0
DWIDTH 12 0
BBX 12 24 0 -2
BITMAP
0000
0000
0000
0000
FFF0
FFF0
FFF0
F8F0
E030
EFB0
DFD0
DFD0
DFD0
DFD0
EFB0
E030
F8F0
FFF0
FFF0
FFF0
0000
0000
0000
0000
ENDCHAR

STARTCHAR C011
ENCODING 11
SWIDTH 451 0
DWIDTH 12 0
BBX 12 24 0 -2
BITMAP
0000
0000
0700
0F80
1FC0
3FE0
76F0
F770
6730
0700
0700
0F80
3FE0
38E0
7070
7070
7070
38E0
3FE0
0F80
0000
0000
0000
0000
ENDCHAR

STARTCHAR C012
ENCODING 12
SWIDTH 451 0
DWIDTH 12 0
BBX 12 24 0 -2
BITMAP
0000
0000
0F80
3FE0
38E0
7070
7070
7070
7070
38E0
3FE0
0F80
0700
0700
7FF0
7FF0
0700
0700
0700
0700
0000
0000
0000
0000
ENDCHAR

STARTCHAR C013
ENCODING 13
SWIDTH 451 0
DWIDTH 12 0
BBX 12 24 0 -2
BITMAP
0000
0000
0000
0000
0600
0700
0780
07C0
07E0
06F0
0770
0730
0730
0770
0700
0700
0F00
3F00
7F00
7E00
3C00
0000
0000
0000
ENDCHAR

STARTCHAR C014
ENCODING 14
SWIDTH 451 0
DWIDTH 12 0
BBX 12 24 0 -2
BITMAP
0000
0000
0000
0000
00F0
03F0
0F70
0E70
0EF0
0FF0
0F70
0E70
0E70
0E70
0E70
0E70
3DF0
7BF0
7BE0
79C0
0000
0000
0000
0000
ENDCHAR

STARTCHAR C015
ENCODING 15
SWIDTH 451 0
DWIDTH 12 0
BBX 12 24 0 -2
BITMAP
0000
0000
0000
0000
0000
0700
6730
F770
7FF0
38E0
F070
F070
3060
38E0
7FF0
F770
6730
0700
0000
0000
0000
0000
0000
0000
ENDCHAR

STARTCHAR C016
ENCODING 16
SWIDTH 451 0
DWIDTH 12 0
BBX 12 24 0 -2
BITMAP
0000
0000
0000
0000
C000
F000
FC00
FF00
FFC0
FFF0
FFF0
FFF0
FFC0
FF00
FC00
F000
C000
0000
0000
0000
0000
0000
0000
0000
ENDCHAR

STARTCHAR C017
ENCODING 17
SWIDTH 451 0
DWIDTH 12 0
BBX 12 24 0 -2
BITMAP
0000
0000
0000
0000
0000
0010
0070
01F0
07F0
1FF0
7FF0
FFF0
7FF0
1FF0
07F0
01F0
0070
0010
0000
0000
0000
0000
0000
0000
ENDCHAR

STARTCHAR C018
ENCODING 18
SWIDTH 451 0
DWIDTH 12 0
BBX 12 24 0 -2
BITMAP
0000
0000
0000
0000
0700
0F80
1FC0
36E0
0700
0700
0700
0700
0700
0700
0700
0700
36E0
1FC0
0F80
0700
0000
0000
0000
0000
ENDCHAR

STARTCHAR C019
ENCODING 19
SWIDTH 451 0
DWIDTH 12 0
BBX 12 24 0 -2
BITMAP
0000
0000
1860
3CF0
3CF0
3CF0
3CF0
3CF0
3CF0
3CF0
3CF0
3CF0
3CF0
1860
1860
1860
1860
0000
0000
1860
3CF0
1860
0000
0000
ENDCHAR

STARTCHAR C020
ENCODING 20
SWIDTH 451 0
DWIDTH 12 0
BBX 12 24 0 -2
BITMAP
0000
0000
0000
0000
1FF0
7F70
FF70
FF70
FF70
FF70
7F70
1F70
0370
0370
0370
0370
0370
0370
07F0
0000
0000
0000
0000
0000
ENDCHAR

STARTCHAR C021
ENCODING 21
SWIDTH 451 0
DWIDTH 12 0
BBX 12 24 0 -2
BITMAP
0000
0000
0F80
38E0
7070
7070
3C00
1F00
3BC0
30E0
7070
7070
3870
1EE0
07C0
01E0
7070
7070
38E0
0F80
0000
0000
0000
0000
ENDCHAR

STARTCHAR C022
ENCODING 22
SWIDTH 451 0
DWIDTH 12 0
BBX 12 24 0 -2
BITMAP
0000
0000
0000
0000
0000
0000
0000
0000
7FF0
7FF0
7FF0
7FF0
7FF0
7FF0
7FF0
7FF0
0000
0000
0000
0000
0000
0000
0000
0000
ENDCHAR

STARTCHAR C023
ENCODING 23
SWIDTH 451 0
DWIDTH 12 0
BBX 12 24 0 -2
BITMAP
0000
0000
0000
0000
0380
07C0
0FE0
1B70
0380
0380
0380
0380
0380
0380
0380
1B70
0FE0
07C0
0380
0000
0000
3FF0
3FF0
0000
ENDCHAR

STARTCHAR C024
ENCODING 24
SWIDTH 451 0
DWIDTH 12 0
BBX 12 24 0 -2
BITMAP
0000
0000
0000
0000
0380
07C0
0FE0
1B70
3BB0
0380
0380
0380
0380
0380
0380
0380
0380
0380
0380
0380
0000
0000
0000
0000
ENDCHAR

STARTCHAR C025
ENCODING 25
SWIDTH 451 0
DWIDTH 12 0
BBX 12 24 0 -2
BITMAP
0000
0000
0000
0000
0380
0380
0380
0380
0380
0380
0380
0380
0380
0380
0380
3BB0
1B70
0FE0
07C0
0380
0000
0000
0000
0000
ENDCHAR

STARTCHAR C026
ENCODING 26
SWIDTH 451 0
DWIDTH 12 0
BBX 12 24 0 -2
BITMAP
0000
0000
0000
0000
0000
0000
0000
0000
01C0
00E0
0070
FFF0
FFF0
0070
00E0
01C0
0000
0000
0000
0000
0000
0000
0000
0000
ENDCHAR

STARTCHAR C027
ENCODING 27
SWIDTH 451 0
DWIDTH 12 0
BBX 12 24 0 -2
BITMAP
0000
0000
0000
0000
0000
0000
0000
0000
1C00
3800
7000
FFF0
FFF0
7000
3800
1C00
0000
0000
0000
0000
0000
0000
0000
0000
ENDCHAR

STARTCHAR C028
ENCODING 28
SWIDTH 451 0
DWIDTH 12 0
BBX 12 24 0 -2
BITMAP
0000
0000
0000
0000
0000
0000
0000
0000
3800
3800
3800
3800
3800
3FF0
3FF0
0000
0000
0000
0000
0000
0000
0000
0000
0000
ENDCHAR

STARTCHAR C029
ENCODING 29
SWIDTH 451 0
DWIDTH 12 0
BBX 12 24 0 -2
BITMAP
0000
0000
0000
0000
0000
0000
0000
0000
1DC0
38E0
7070
FFF0
FFF0
7070
38E0
1DC0
0000
0000
0000
0000
0000
0000
0000
0000
ENDCHAR

STARTCHAR C030
ENCODING 30
SWIDTH 451 0
DWIDTH 12 0
BBX 12 24 0 -2
BITMAP
0000
0000
0000
0000
0000
0000
0700
0700
0F80
0F80
1FC0
1FC0
3FE0
3FE0
7FF0
7FF0
FFF0
0000
0000
0000
0000
0000
0000
0000
ENDCHAR

STARTCHAR C031
ENCODING 31
SWIDTH 451 0
DWIDTH 12 0
BBX 12 24 0 -2
BITMAP
0000
0000
0000
0000
0000
0000
FFF0
7FF0
7FF0
3FE0
3FE0
1FC0
1FC0
0F80
0F80
0700
0700
0000
0000
0000
0000
0000
0000
0000
ENDCHAR

STARTCHAR C032
ENCODING 32
SWIDTH 451 0
DWIDTH 12 0
BBX 12 24 0 -2
BITMAP
0000
0000
0000
0000
0000
0000
0000
0000
0000
0000
0000
0000
0000
0000
0000
0000
0000
0000
0000
0000
0000
0000
0000
0000
ENDCHAR

STARTCHAR C033
ENCODING 33
SWIDTH 451 0
DWIDTH 12 0
BBX 12 24 0 -2
BITMAP
0000
0000
0300
0780
0780
0780
0780
0780
0780
0780
0780
0780
0780
0300
0300
0300
0000
0000
0300
0780
0780
0300
0000
0000
ENDCHAR

STARTCHAR C034
ENCODING 34
SWIDTH 451 0
DWIDTH 12 0
BBX 12 24 0 -2
BITMAP
0000
0000
0CC0
1DE0
1DE0
1DE0
0CC0
0CC0
0CC0
0000
0000
0000
0000
0000
0000
0000
0000
0000
0000
0000
0000
0000
0000
0000
ENDCHAR

STARTCHAR C035
ENCODING 35
SWIDTH 451 0
DWIDTH 12 0
BBX 12 24 0 -2
BITMAP
0000
0000
0000
0000
0770
0770
0770
0770
3FF0
0EE0
0EE0
0EE0
0EE0
0EE0
7FF0
1DC0
1DC0
1DC0
1DC0
0000
0000
0000
0000
0000
ENDCHAR

STARTCHAR C036
ENCODING 36
SWIDTH 451 0
DWIDTH 12 0
BBX 12 24 0 -2
BITMAP
0000
0000
0600
0600
0F60
35E0
76E0
7660
7660
3600
1E00
0F00
05C0
06E0
6670
6670
7670
76E0
5FC0
0600
0600
0000
0000
0000
ENDCHAR

STARTCHAR C037
ENCODING 37
SWIDTH 451 0
DWIDTH 12 0
BBX 12 24 0 -2
BITMAP
0000
0000
1E30
3B30
7370
7770
66E0
6EE0
3DC0
01C0
0380
0380
0700
0700
0EF0
0DD0
1B90
1BB0
3B30
3B70
71E0
0000
0000
0000
ENDCHAR

STARTCHAR C038
ENCODING 38
SWIDTH 451 0
DWIDTH 12 0
BBX 12 24 0 -2
BITMAP
0000
0000
0000
0000
1E00
3700
7380
7380
7380
3700
1E70
3C30
3C30
6E70
E760
E360
E1E0
71D0
3F70
0000
0000
0000
0000
0000
ENDCHAR

STARTCHAR C039
ENCODING 39
SWIDTH 451 0
DWIDTH 12 0
BBX 12 24 0 -2
BITMAP
0000
0000
0300
0780
0780
0780
0300
0300
0300
0000
0000
0000
0000
0000
0000
0000
0000
0000
0000
0000
0000
0000
0000
0000
ENDCHAR

STARTCHAR C040
ENCODING 40
SWIDTH 451 0
DWIDTH 12 0
BBX 12 24 0 -2
BITMAP
0000
0060
00E0
01C0
01C0
0380
0380
0380
0700
0700
0700
0700
0700
0700
0700
0700
0380
0380
0380
01C0
01C0
00E0
0060
0000
ENDCHAR

STARTCHAR C041
ENCODING 41
SWIDTH 451 0
DWIDTH 12 0
BBX 12 24 0 -2
BITMAP
0000
3000
3800
1C00
1C00
0E00
0E00
0E00
0700
0700
0700
0700
0700
0700
0700
0700
0E00
0E00
0E00
1C00
1C00
3800
3000
0000
ENDCHAR

STARTCHAR C042
ENCODING 42
SWIDTH 451 0
DWIDTH 12 0
BBX 12 24 0 -2
BITMAP
0000
0000
0000
0000
0000
0700
0F80
0F80
3760
76F0
76F0
3FE0
0F80
1FC0
3DE0
3DE0
18C0
0000
0000
0000
0000
0000
0000
0000
ENDCHAR

STARTCHAR C043
ENCODING 43
SWIDTH 451 0
DWIDTH 12 0
BBX 12 24 0 -2
BITMAP
0000
0000
0000
0000
0000
0000
0700
0700
0700
0700
7FF0
7FF0
0700
0700
0700
0700
0000
0000
0000
0000
0000
0000
0000
0000
ENDCHAR

STARTCHAR C044
ENCODING 44
SWIDTH 451 0
DWIDTH 12 0
BBX 12 24 0 -2
BITMAP
0000
0000
0000
0000
0000
0000
0000
0000
0000
0000
0000
0000
0000
0000
0000
0000
1C00
3E00
3E00
1C00
0C00
3800
0000
0000
ENDCHAR

STARTCHAR C045
ENCODING 45
SWIDTH 451 0
DWIDTH 12 0
BBX 12 24 0 -2
BITMAP
0000
0000
0000
0000
0000
0000
0000
0000
0000
0000
0000
7FF0
7FF0
0000
0000
0000
0000
0000
0000
0000
0000
0000
0000
0000
ENDCHAR

STARTCHAR C046
ENCODING 46
SWIDTH 451 0
DWIDTH 12 0
BBX 12 24 0 -2
BITMAP
0000
0000
0000
0000
0000
0000
0000
0000
0000
0000
0000
0000
0000
0000
0000
0000
1C00
3E00
3E00
1C00
0000
0000
0000
0000
ENDCHAR

STARTCHAR C047
ENCODING 47
SWIDTH 451 0
DWIDTH 12 0
BBX 12 24 0 -2
BITMAP
0000
0070
00E0
00E0
00E0
01C0
01C0
01C0
0380
0380
0380
0700
0700
0E00
0E00
0E00
1C00
1C00
1C00
3800
3800
3800
7000
0000
ENDCHAR

STARTCHAR C048
ENCODING 48
SWIDTH 451 0
DWIDTH 12 0
BBX 12 24 0 -2
BITMAP
0000
0000
0000
0000
0F80
1DC0
38E0
39E0
7170
7370
7370
7770
7670
6E70
6C70
3CE0
38E0
1DC0
0F80
0000
0000
0000
0000
0000
ENDCHAR

STARTCHAR C049
ENCODING 49
SWIDTH 451 0
DWIDTH 12 0
BBX 12 24 0 -2
BITMAP
0000
0000
0000
0000
0300
3F00
0700
0700
0700
0700
0700
0700
0700
0700
0700
0700
0700
0700
3FE0
0000
0000
0000
0000
0000
ENDCHAR

STARTCHAR C050
ENCODING 50
SWIDTH 451 0
DWIDTH 12 0
BBX 12 24 0 -2
BITMAP
0000
0000
0000
0000
1F80
39C0
70E0
78E0
38E0
00E0
01C0
0380
0700
0E00
1C00
3830
3870
7FE0
7FE0
0000
0000
0000
0000
0000
ENDCHAR

STARTCHAR C051
ENCODING 51
SWIDTH 451 0
DWIDTH 12 0
BBX 12 24 0 -2
BITMAP
0000
0000
0000
0000
0FC0
3CE0
7870
3870
0070
01E0
07C0
00E0
00E0
0070
0070
3070
78F0
7CE0
1FC0
0000
0000
0000
0000
0000
ENDCHAR

STARTCHAR C052
ENCODING 52
SWIDTH 451 0
DWIDTH 12 0
BBX 12 24 0 -2
BITMAP
0000
0000
0000
0000
01C0
01C0
03C0
07C0
07C0
0DC0
1DC0
1DC0
39C0
71C0
7FF0
01C0
01C0
01C0
07F0
0000
0000
0000
0000
0000
ENDCHAR

STARTCHAR C053
ENCODING 53
SWIDTH 451 0
DWIDTH 12 0
BBX 12 24 0 -2
BITMAP
0000
0000
0000
0000
3FE0
3FC0
3000
3000
3000
3FC0
38E0
0070
0070
0070
0070
3870
7C70
7CE0
1FC0
0000
0000
0000
0000
0000
ENDCHAR

STARTCHAR C054
ENCODING 54
SWIDTH 451 0
DWIDTH 12 0
BBX 12 24 0 -2
BITMAP
0000
0000
0000
0000
07C0
1C70
3870
3800
7000
7000
6FC0
78E0
7070
7070
7070
7070
7070
38E0
1FC0
0000
0000
0000
0000
0000
ENDCHAR

STARTCHAR C055
ENCODING 55
SWIDTH 451 0
DWIDTH 12 0
BBX 12 24 0 -2
BITMAP
0000
0000
0000
0000
1FF0
1FF0
3870
3060
00E0
00E0
00C0
01C0
01C0
0180
0380
0380
0300
0700
0700
0000
0000
0000
0000
0000
ENDCHAR

STARTCHAR C056
ENCODING 56
SWIDTH 451 0
DWIDTH 12 0
BBX 12 24 0 -2
BITMAP
0000
0000
0000
0000
0F80
1DC0
38E0
38E0
3CE0
1DC0
0F80
1FC0
39E0
70F0
7070
7070
38E0
3DE0
0F80
0000
0000
0000
0000
0000
ENDCHAR

STARTCHAR C057
ENCODING 57
SWIDTH 451 0
DWIDTH 12 0
BBX 12 24 0 -2
BITMAP
0000
0000
0000
0000
0F80
3DE0
38E0
7070
7070
7070
38F0
3DF0
0F70
0070
0070
3070
78E0
79E0
1FC0
0000
0000
0000
0000
0000
ENDCHAR

STARTCHAR C058
ENCODING 58
SWIDTH 451 0
DWIDTH 12 0
BBX 12 24 0 -2
BITMAP
0000
0000
0000
0000
0000
0700
0F80
0F80
0700
0000
0000
0000
0000
0000
0000
0700
0F80
0F80
0700
0000
0000
0000
0000
0000
ENDCHAR

STARTCHAR C059
ENCODING 59
SWIDTH 451 0
DWIDTH 12 0
BBX 12 24 0 -2
BITMAP
0000
0000
0000
0000
0000
0700
0F80
0F80
0700
0000
0000
0000
0000
0000
0000
0700
0F80
0F80
0780
0380
0300
0E00
0000
0000
ENDCHAR

STARTCHAR C060
ENCODING 60
SWIDTH 451 0
DWIDTH 12 0
BBX 12 24 0 -2
BITMAP
0000
0000
0000
0000
0030
00F0
03E0
0F80
3E00
F800
E000
F800
3E00
0F80
03E0
00F0
0030
0000
0000
0000
0000
0000
0000
0000
ENDCHAR

STARTCHAR C061
ENCODING 61
SWIDTH 451 0
DWIDTH 12 0
BBX 12 24 0 -2
BITMAP
0000
0000
0000
0000
0000
0000
0000
7FF0
7FF0
0000
0000
0000
0000
7FF0
7FF0
0000
0000
0000
0000
0000
0000
0000
0000
0000
ENDCHAR

STARTCHAR C062
ENCODING 62
SWIDTH 451 0
DWIDTH 12 0
BBX 12 24 0 -2
BITMAP
0000
0000
0000
0000
E000
F800
3E00
0F80
03E0
00F0
0030
00F0
03E0
0F80
3E00
F800
E000
0000
0000
0000
0000
0000
0000
0000
ENDCHAR

STARTCHAR C063
ENCODING 63
SWIDTH 451 0
DWIDTH 12 0
BBX 12 24 0 -2
BITMAP
0000
0000
0FC0
3CE0
3870
7070
7870
78F0
30E0
01C0
0380
0300
0700
0600
0600
0000
0000
0000
0700
0F80
0F80
0700
0000
0000
ENDCHAR

STARTCHAR C064
ENCODING 64
SWIDTH 451 0
DWIDTH 12 0
BBX 12 24 0 -2
BITMAP
0000
0000
0000
0000
0780
1CE0
3870
7030
76B0
EDB0
ECB0
DDB0
DDB0
DD70
DB60
6EC0
7000
38E0
0F80
0000
0000
0000
0000
0000
ENDCHAR

STARTCHAR C065
ENCODING 65
SWIDTH 451 0
DWIDTH 12 0
BBX 12 24 0 -2
BITMAP
0000
0000
0000
0000
0300
0300
0780
0780
0DC0
0DC0
0DC0
18E0
1FE0
1FE0
18E0
3070
3070
3070
7DF0
0000
0000
0000
0000
0000
ENDCHAR

STARTCHAR C066
ENCODING 66
SWIDTH 451 0
DWIDTH 12 0
BBX 12 24 0 -2
BITMAP
0000
0000
0000
0000
7F80
38E0
3870
3870
3870
38E0
3FC0
38F0
3870
3830
3830
3830
3870
38F0
7FC0
0000
0000
0000
0000
0000
ENDCHAR

STARTCHAR C067
ENCODING 67
SWIDTH 451 0
DWIDTH 12 0
BBX 12 24 0 -2
BITMAP
0000
0000
0000
0000
07B0
1CF0
3870
3830
7030
7000
7000
7000
7000
7000
7000
3830
3870
1CE0
07C0
0000
0000
0000
0000
0000
ENDCHAR

STARTCHAR C068
ENCODING 68
SWIDTH 451 0
DWIDTH 12 0
BBX 12 24 0 -2
BITMAP
0000
0000
0000
0000
7F80
38E0
3870
3870
3830
3830
3830
3830
3830
3830
3830
3870
3870
38E0
7F80
0000
0000
0000
0000
0000
ENDCHAR

STARTCHAR C069
ENCODING 69
SWIDTH 451 0
DWIDTH 12 0
BBX 12 24 0 -2
BITMAP
0000
0000
0000
0000
7FF0
1C30
1C10
1C00
1CC0
1CC0
1FC0
1CC0
1CC0
1C00
1C00
1C00
1C10
1C30
7FF0
0000
0000
0000
0000
0000
ENDCHAR

STARTCHAR C070
ENCODING 70
SWIDTH 451 0
DWIDTH 12 0
BBX 12 24 0 -2
BITMAP
0000
0000
0000
0000
7FF0
1C30
1C10
1C10
1CC0
1CC0
1FC0
1CC0
1CC0
1C00
1C00
1C00
1C00
1C00
7F00
0000
0000
0000
0000
0000
ENDCHAR

STARTCHAR C071
ENCODING 71
SWIDTH 451 0
DWIDTH 12 0
BBX 12 24 0 -2
BITMAP
0000
0000
0000
0000
07B0
1CF0
3870
3830
7030
7000
7000
71F0
7070
7070
7070
3870
3870
1CE0
0780
0000
0000
0000
0000
0000
ENDCHAR

STARTCHAR C072
ENCODING 72
SWIDTH 451 0
DWIDTH 12 0
BBX 12 24 0 -2
BITMAP
0000
0000
0000
0000
7CF0
3870
3870
3870
3870
3870
3FF0
3870
3870
3870
3870
3870
3870
3870
7CF0
0000
0000
0000
0000
0000
ENDCHAR

STARTCHAR C073
ENCODING 73
SWIDTH 451 0
DWIDTH 12 0
BBX 12 24 0 -2
BITMAP
0000
0000
0000
0000
3FE0
0700
0700
0700
0700
0700
0700
0700
0700
0700
0700
0700
0700
0700
3FE0
0000
0000
0000
0000
0000
ENDCHAR

STARTCHAR C074
ENCODING 74
SWIDTH 451 0
DWIDTH 12 0
BBX 12 24 0 -2
BITMAP
0000
0000
0000
0000
07F0
01C0
01C0
01C0
01C0
01C0
01C0
01C0
01C0
01C0
31C0
79C0
7980
3380
1F00
0000
0000
0000
0000
0000
ENDCHAR

STARTCHAR C075
ENCODING 75
SWIDTH 451 0
DWIDTH 12 0
BBX 12 24 0 -2
BITMAP
0000
0000
0000
0000
7CF0
3870
38E0
39C0
3B80
3700
3E00
3E00
3700
3B80
39C0
39C0
38E0
3870
7EF0
0000
0000
0000
0000
0000
ENDCHAR

STARTCHAR C076
ENCODING 76
SWIDTH 451 0
DWIDTH 12 0
BBX 12 24 0 -2
BITMAP
0000
0000
0000
0000
7F00
1C00
1C00
1C00
1C00
1C00
1C00
1C00
1C00
1C00
1C10
1C10
1C30
1C70
7FF0
0000
0000
0000
0000
0000
ENDCHAR

STARTCHAR C077
ENCODING 77
SWIDTH 451 0
DWIDTH 12 0
BBX 12 24 0 -2
BITMAP
0000
0000
0000
0000
7870
38F0
3CF0
3CF0
3DF0
2D70
2D70
2F70
3770
3770
3770
3070
3070
3070
78F0
0000
0000
0000
0000
0000
ENDCHAR

STARTCHAR C078
ENCODING 78
SWIDTH 451 0
DWIDTH 12 0
BBX 12 24 0 -2
BITMAP
0000
0000
0000
0000
7870
3C30
3C30
2E30
2E30
3730
3730
33B0
33B0
31B0
31B0
30B0
30F0
3070
7870
0000
0000
0000
0000
0000
ENDCHAR

STARTCHAR C079
ENCODING 79
SWIDTH 451 0
DWIDTH 12 0
BBX 12 24 0 -2
BITMAP
0000
0000
0000
0000
0780
1CE0
3870
3030
7030
7030
7030
7030
7030
7030
7030
3030
3870
1CE0
0780
0000
0000
0000
0000
0000
ENDCHAR

STARTCHAR C080
ENCODING 80
SWIDTH 451 0
DWIDTH 12 0
BBX 12 24 0 -2
BITMAP
0000
0000
0000
0000
7FC0
1C70
1C30
1C30
1C30
1C30
1C30
1C70
1FC0
1C00
1C00
1C00
1C00
1C00
7F00
0000
0000
0000
0000
0000
ENDCHAR

STARTCHAR C081
ENCODING 81
SWIDTH 451 0
DWIDTH 12 0
BBX 12 24 0 -2
BITMAP
0000
0000
0000
0000
0780
1CE0
3870
3030
7030
7030
7030
7030
7030
7030
77B0
2DB0
3DF0
1CE0
0FD0
00F0
0070
0000
0000
0000
ENDCHAR

STARTCHAR C082
ENCODING 82
SWIDTH 451 0
DWIDTH 12 0
BBX 12 24 0 -2
BITMAP
0000
0000
0000
0000
7F80
38E0
3870
3870
3870
3870
38E0
3FC0
39C0
39C0
38E0
38E0
3870
3870
7CF0
0000
0000
0000
0000
0000
ENDCHAR

STARTCHAR C083
ENCODING 83
SWIDTH 451 0
DWIDTH 12 0
BBX 12 24 0 -2
BITMAP
0000
0000
0000
0000
0780
1CB0
3870
3830
3830
3C00
1F00
07C0
01E0
0070
3030
3030
3830
2E70
33C0
0000
0000
0000
0000
0000
ENDCHAR

STARTCHAR C084
ENCODING 84
SWIDTH 451 0
DWIDTH 12 0
BBX 12 24 0 -2
BITMAP
0000
0000
0000
0000
7FF0
7770
6730
6730
0700
0700
0700
0700
0700
0700
0700
0700
0700
0700
1FC0
0000
0000
0000
0000
0000
ENDCHAR

STARTCHAR C085
ENCODING 85
SWIDTH 451 0
DWIDTH 12 0
BBX 12 24 0 -2
BITMAP
0000
0000
0000
0000
F8F0
7070
7070
7070
7070
7070
7070
7070
7070
7070
7070
7070
3860
3CE0
0F80
0000
0000
0000
0000
0000
ENDCHAR

STARTCHAR C086
ENCODING 86
SWIDTH 451 0
DWIDTH 12 0
BBX 12 24 0 -2
BITMAP
0000
0000
0000
0000
F8F0
7030
7030
7070
3860
3860
38E0
1CC0
1CC0
1DC0
0D80
0D80
0F80
0700
0700
0000
0000
0000
0000
0000
ENDCHAR

STARTCHAR C087
ENCODING 87
SWIDTH 451 0
DWIDTH 12 0
BBX 12 24 0 -2
BITMAP
0000
0000
0000
0000
EF70
7730
7730
7730
7730
7730
3F60
3B60
3B60
3B60
3B60
3BE0
18C0
18C0
18C0
0000
0000
0000
0000
0000
ENDCHAR

STARTCHAR C088
ENCODING 88
SWIDTH 451 0
DWIDTH 12 0
BBX 12 24 0 -2
BITMAP
0000
0000
0000
0000
FDF0
78E0
38E0
1DC0
1DC0
0F80
0F80
0700
0F80
0FC0
1DC0
38E0
38F0
7070
FDF0
0000
0000
0000
0000
0000
ENDCHAR

STARTCHAR C089
ENCODING 89
SWIDTH 451 0
DWIDTH 12 0
BBX 12 24 0 -2
BITMAP
0000
0000
0000
0000
F870
7030
3860
3860
1CC0
1CC0
0D80
0F80
0700
0700
0700
0700
0700
0700
1FC0
0000
0000
0000
0000
0000
ENDCHAR

STARTCHAR C090
ENCODING 90
SWIDTH 451 0
DWIDTH 12 0
BBX 12 24 0 -2
BITMAP
0000
0000
0000
0000
3FF0
3870
70E0
60E0
01C0
01C0
0380
0700
0700
0E00
1C00
1C10
3830
7070
7FF0
0000
0000
0000
0000
0000
ENDCHAR

STARTCHAR C091
ENCODING 91
SWIDTH 451 0
DWIDTH 12 0
BBX 12 24 0 -2
BITMAP
0000
07E0
07E0
0600
0600
0600
0600
0600
0600
0600
0600
0600
0600
0600
0600
0600
0600
0600
0600
0600
0600
07E0
07E0
0000
ENDCHAR

STARTCHAR C092
ENCODING 92
SWIDTH 451 0
DWIDTH 12 0
BBX 12 24 0 -2
BITMAP
0000
7000
7000
3800
3800
3800
1C00
1C00
1C00
0E00
0E00
0E00
0700
0700
0380
0380
0380
01C0
01C0
01C0
00E0
00E0
0070
0000
ENDCHAR

STARTCHAR C093
ENCODING 93
SWIDTH 451 0
DWIDTH 12 0
BBX 12 24 0 -2
BITMAP
0000
3F00
3F00
0300
0300
0300
0300
0300
0300
0300
0300
0300
0300
0300
0300
0300
0300
0300
0300
0300
0300
3F00
3F00
0000
ENDCHAR

STARTCHAR C094
ENCODING 94
SWIDTH 451 0
DWIDTH 12 0
BBX 12 24 0 -2
BITMAP
0300
0780
0DC0
1860
0000
0000
0000
0000
0000
0000
0000
0000
0000
0000
0000
0000
0000
0000
0000
0000
0000
0000
0000
0000
ENDCHAR

STARTCHAR C095
ENCODING 95
SWIDTH 451 0
DWIDTH 12 0
BBX 12 24 0 -2
BITMAP
0000
0000
0000
0000
0000
0000
0000
0000
0000
0000
0000
0000
0000
0000
0000
0000
0000
0000
0000
0000
0000
0000
FFF0
0000
ENDCHAR

STARTCHAR C096
ENCODING 96
SWIDTH 451 0
DWIDTH 12 0
BBX 12 24 0 -2
BITMAP
0380
03C0
01E0
0070
0000
0000
0000
0000
0000
0000
0000
0000
0000
0000
0000
0000
0000
0000
0000
0000
0000
0000
0000
0000
ENDCHAR

STARTCHAR C097
ENCODING 97
SWIDTH 451 0
DWIDTH 12 0
BBX 12 24 0 -2
BITMAP
0000
0000
0000
0000
0000
0000
0000
0000
0FC0
3860
3870
0070
0FF0
3870
7070
7070
7070
3870
0FB0
0000
0000
0000
0000
0000
ENDCHAR

STARTCHAR C098
ENCODING 98
SWIDTH 451 0
DWIDTH 12 0
BBX 12 24 0 -2
BITMAP
0000
0000
0000
0000
1800
7800
3800
3800
37C0
3C70
3830
3830
3830
3830
3830
3830
3830
3C70
37C0
0000
0000
0000
0000
0000
ENDCHAR

STARTCHAR C099
ENCODING 99
SWIDTH 451 0
DWIDTH 12 0
BBX 12 24 0 -2
BITMAP
0000
0000
0000
0000
0000
0000
0000
0000
07D0
1C70
3830
3810
7000
7000
7000
3800
3810
1C30
07E0
0000
0000
0000
0000
0000
ENDCHAR

STARTCHAR C100
ENCODING 100
SWIDTH 451 0
DWIDTH 12 0
BBX 12 24 0 -2
BITMAP
0000
0000
0000
0000
0030
00F0
0070
0070
0F70
3CF0
3870
7070
7070
7070
7070
7070
3870
3C70
0FB0
0000
0000
0000
0000
0000
ENDCHAR

STARTCHAR C101
ENCODING 101
SWIDTH 451 0
DWIDTH 12 0
BBX 12 24 0 -2
BITMAP
0000
0000
0000
0000
0000
0000
0000
0000
0FC0
3870
3870
7030
7FF0
7000
7000
7000
3830
3C70
0FC0
0000
0000
0000
0000
0000
ENDCHAR

STARTCHAR C102
ENCODING 102
SWIDTH 451 0
DWIDTH 12 0
BBX 12 24 0 -2
BITMAP
0000
0000
0000
0000
03C0
06E0
0EE0
0E00
0E00
0E00
3FC0
0E00
0E00
0E00
0E00
0E00
0E00
0E00
7FC0
0000
0000
0000
0000
0000
ENDCHAR

STARTCHAR C103
ENCODING 103
SWIDTH 451 0
DWIDTH 12 0
BBX 12 24 0 -2
BITMAP
0000
0000
0000
0000
0000
0000
0000
0000
0770
1DC0
38E0
38E0
38E0
19C0
1F00
3800
1FC0
3870
7030
7030
7030
3870
0FC0
0000
ENDCHAR

STARTCHAR C104
ENCODING 104
SWIDTH 451 0
DWIDTH 12 0
BBX 12 24 0 -2
BITMAP
0000
0000
0000
0000
1800
7800
3800
3800
37C0
3CE0
3870
3870
3870
3870
3870
3870
3870
3870
7CF0
0000
0000
0000
0000
0000
ENDCHAR

STARTCHAR C105
ENCODING 105
SWIDTH 451 0
DWIDTH 12 0
BBX 12 24 0 -2
BITMAP
0000
0000
0000
0000
0700
0F80
0700
0000
0300
1F00
0700
0700
0700
0700
0700
0700
0700
0700
3FE0
0000
0000
0000
0000
0000
ENDCHAR

STARTCHAR C106
ENCODING 106
SWIDTH 451 0
DWIDTH 12 0
BBX 12 24 0 -2
BITMAP
0000
0000
0000
0000
01C0
03E0
01C0
0000
0060
07E0
00E0
00E0
00E0
00E0
00E0
00E0
00E0
18E0
3CE0
3CE0
38C0
1DC0
0F80
0000
ENDCHAR

STARTCHAR C107
ENCODING 107
SWIDTH 451 0
DWIDTH 12 0
BBX 12 24 0 -2
BITMAP
0000
0000
0000
0000
7C00
3800
3800
3800
39F0
38E0
39C0
3B80
3700
3F00
3B80
39C0
38E0
3870
7CF0
0000
0000
0000
0000
0000
ENDCHAR

STARTCHAR C108
ENCODING 108
SWIDTH 451 0
DWIDTH 12 0
BBX 12 24 0 -2
BITMAP
0000
0000
0000
0000
0300
3F00
0700
0700
0700
0700
0700
0700
0700
0700
0700
0700
0700
0700
3FE0
0000
0000
0000
0000
0000
ENDCHAR

STARTCHAR C109
ENCODING 109
SWIDTH 451 0
DWIDTH 12 0
BBX 12 24 0 -2
BITMAP
0000
0000
0000
0000
0000
0000
0000
0000
DDE0
7770
7770
7770
7770
7770
7770
7770
7770
7770
EF70
0000
0000
0000
0000
0000
ENDCHAR

STARTCHAR C110
ENCODING 110
SWIDTH 451 0
DWIDTH 12 0
BBX 12 24 0 -2
BITMAP
0000
0000
0000
0000
0000
0000
0000
0000
2FE0
7C70
3870
3870
3870
3870
3870
3870
3870
3870
7CF0
0000
0000
0000
0000
0000
ENDCHAR

STARTCHAR C111
ENCODING 111
SWIDTH 451 0
DWIDTH 12 0
BBX 12 24 0 -2
BITMAP
0000
0000
0000
0000
0000
0000
0000
0000
0780
1CE0
3870
7030
7030
7030
7030
7030
3870
1CE0
0780
0000
0000
0000
0000
0000
ENDCHAR

STARTCHAR C112
ENCODING 112
SWIDTH 451 0
DWIDTH 12 0
BBX 12 24 0 -2
BITMAP
0000
0000
0000
0000
0000
0000
0000
0000
17C0
7C70
3830
3830
3830
3830
3830
3830
3830
3C70
37C0
3800
3800
3800
7E00
0000
ENDCHAR

STARTCHAR C113
ENCODING 113
SWIDTH 451 0
DWIDTH 12 0
BBX 12 24 0 -2
BITMAP
0000
0000
0000
0000
0000
0000
0000
0000
0FB0
38F0
3070
7070
7070
7070
7070
7070
3070
38F0
0F70
0070
0070
0070
01F0
0000
ENDCHAR

STARTCHAR C114
ENCODING 114
SWIDTH 451 0
DWIDTH 12 0
BBX 12 24 0 -2
BITMAP
0000
0000
0000
0000
0000
0000
0000
0000
0DE0
7B70
1E70
1C00
1C00
1C00
1C00
1C00
1C00
1C00
7F80
0000
0000
0000
0000
0000
ENDCHAR

STARTCHAR C115
ENCODING 115
SWIDTH 451 0
DWIDTH 12 0
BBX 12 24 0 -2
BITMAP
0000
0000
0000
0000
0000
0000
0000
0000
1FD0
3CF0
3830
3C10
1F00
07C0
01F0
3070
3030
3C70
37F0
0000
0000
0000
0000
0000
ENDCHAR

STARTCHAR C116
ENCODING 116
SWIDTH 451 0
DWIDTH 12 0
BBX 12 24 0 -2
BITMAP
0000
0000
0000
0000
0C00
0C00
1C00
1C00
7F80
1C00
1C00
1C00
1C00
1C00
1C00
1C00
1C60
0EC0
0780
0000
0000
0000
0000
0000
ENDCHAR

STARTCHAR C117
ENCODING 117
SWIDTH 451 0
DWIDTH 12 0
BBX 12 24 0 -2
BITMAP
0000
0000
0000
0000
0000
0000
0000
0000
79F0
3870
3870
3870
3870
3870
3870
3870
3870
1C70
0FB0
0000
0000
0000
0000
0000
ENDCHAR

STARTCHAR C118
ENCODING 118
SWIDTH 451 0
DWIDTH 12 0
BBX 12 24 0 -2
BITMAP
0000
0000
0000
0000
0000
0000
0000
0000
7CF0
3860
3860
3860
1CC0
1CC0
1CC0
0D80
0D80
0780
0700
0000
0000
0000
0000
0000
ENDCHAR

STARTCHAR C119
ENCODING 119
SWIDTH 451 0
DWIDTH 12 0
BBX 12 24 0 -2
BITMAP
0000
0000
0000
0000
0000
0000
0000
0000
EF70
7730
7730
7730
6F60
2B60
2B60
3DE0
3DE0
18C0
18C0
0000
0000
0000
0000
0000
ENDCHAR

STARTCHAR C120
ENCODING 120
SWIDTH 451 0
DWIDTH 12 0
BBX 12 24 0 -2
BITMAP
0000
0000
0000
0000
0000
0000
0000
0000
FCF0
7870
3CE0
1DC0
0F80
0780
0FC0
1DE0
38F0
7070
F8F0
0000
0000
0000
0000
0000
ENDCHAR

STARTCHAR C121
ENCODING 121
SWIDTH 451 0
DWIDTH 12 0
BBX 12 24 0 -2
BITMAP
0000
0000
0000
0000
0000
0000
0000
0000
7EF0
3C30
1C30
1C70
0E60
0E60
0EE0
06C0
07C0
0380
0380
0380
3B00
3700
1E00
0000
ENDCHAR

STARTCHAR C122
ENCODING 122
SWIDTH 451 0
DWIDTH 12 0
BBX 12 24 0 -2
BITMAP
0000
0000
0000
0000
0000
0000
0000
0000
3FF0
7070
60F0
01E0
03C0
0780
0F00
1E00
3C30
7870
7FE0
0000
0000
0000
0000
0000
ENDCHAR

STARTCHAR C123
ENCODING 123
SWIDTH 451 0
DWIDTH 12 0
BBX 12 24 0 -2
BITMAP
0000
00E0
0380
0300
0700
0700
0700
0700
0700
0600
0E00
3C00
0E00
0600
0700
0700
0700
0700
0700
0700
0300
0380
00E0
0000
ENDCHAR

STARTCHAR C124
ENCODING 124
SWIDTH 451 0
DWIDTH 12 0
BBX 12 24 0 -2
BITMAP
0000
0600
0600
0600
0600
0600
0600
0600
0600
0600
0600
0600
0600
0600
0600
0600
0600
0600
0600
0600
0600
0600
0600
0000
ENDCHAR

STARTCHAR C125
ENCODING 125
SWIDTH 451 0
DWIDTH 12 0
BBX 12 24 0 -2
BITMAP
0000
3800
0E00
0600
0700
0700
0700
0700
0700
0700
0380
01E0
0380
0300
0700
0700
0700
0700
0700
0700
0600
0E00
3800
0000
ENDCHAR

STARTCHAR C126
ENCODING 126
SWIDTH 451 0
DWIDTH 12 0
BBX 12 24 0 -2
BITMAP
1C30
3F70
73E0
61C0
0000
0000
0000
0000
0000
0000
0000
0000
0000
0000
0000
0000
0000
0000
0000
0000
0000
0000
0000
0000
ENDCHAR

STARTCHAR C127
ENCODING 127
SWIDTH 451 0
DWIDTH 12 0
BBX 12 24 0 -2
BITMAP
0000
0000
0000
0000
0000
0000
0300
0780
0780
0FC0
0DC0
1CE0
1CE0
3870
3870
7FF0
7FF0
0000
0000
0000
0000
0000
0000
0000
ENDCHAR

STARTCHAR C128
ENCODING 128
SWIDTH 451 0
DWIDTH 12 0
BBX 12 24 0 -2
BITMAP
0000
0000
0000
0000
07C0
1C70
3810
3800
7000
7000
7000
7000
7000
7000
7000
3800
3810
1C70
07C0
0380
00C0
0CC0
0780
0000
ENDCHAR

STARTCHAR C129
ENCODING 129
SWIDTH 451 0
DWIDTH 12 0
BBX 12 24 0 -2
BITMAP
0000
0000
0000
0000
38E0
7DF0
38E0
0000
78F0
3870
3870
3870
3870
3870
3870
3870
3870
1CF0
07B0
0000
0000
0000
0000
0000
ENDCHAR

STARTCHAR C130
ENCODING 130
SWIDTH 451 0
DWIDTH 12 0
BBX 12 24 0 -2
BITMAP
0000
0000
0000
01C0
03E0
0F00
0000
0000
0F80
38E0
3870
7070
7FF0
7000
7000
7000
3830
3C60
0FC0
0000
0000
0000
0000
0000
ENDCHAR

STARTCHAR C131
ENCODING 131
SWIDTH 451 0
DWIDTH 12 0
BBX 12 24 0 -2
BITMAP
0000
0000
0000
0700
0F80
1DC0
0000
0000
0F80
38E0
3870
0070
0FF0
3870
7070
7070
7070
38F0
0FB0
0000
0000
0000
0000
0000
ENDCHAR

STARTCHAR C132
ENCODING 132
SWIDTH 451 0
DWIDTH 12 0
BBX 12 24 0 -2
BITMAP
0000
0000
0000
0000
1C70
3EF0
1C70
0000
0F80
38E0
3870
0070
0FF0
3870
7070
7070
7070
38F0
0FB0
0000
0000
0000
0000
0000
ENDCHAR

STARTCHAR C133
ENCODING 133
SWIDTH 451 0
DWIDTH 12 0
BBX 12 24 0 -2
BITMAP
0000
0000
0000
0E00
1F00
03C0
0000
0000
0F80
38E0
3870
0070
0FF0
3870
7070
7070
7070
38F0
0FB0
0000
0000
0000
0000
0000
ENDCHAR

STARTCHAR C134
ENCODING 134
SWIDTH 451 0
DWIDTH 12 0
BBX 12 24 0 -2
BITMAP
0000
0000
0000
0780
0CC0
0CC0
0780
0000
0F80
38E0
3870
0070
0FF0
3870
7070
7070
7070
38F0
0FB0
0000
0000
0000
0000
0000
ENDCHAR

STARTCHAR C135
ENCODING 135
SWIDTH 451 0
DWIDTH 12 0
BBX 12 24 0 -2
BITMAP
0000
0000
0000
0000
0000
0000
0000
0000
0780
1CE0
3830
7000
7000
7000
7000
7000
3830
3C60
0FC0
0380
00C0
0CC0
0780
0000
ENDCHAR

STARTCHAR C136
ENCODING 136
SWIDTH 451 0
DWIDTH 12 0
BBX 12 24 0 -2
BITMAP
0000
0000
0000
0000
00E0
03E0
0F00
0000
0FC0
3C70
3830
7030
7FF0
7000
7000
7000
3810
3C70
0FC0
0000
0000
0000
0000
0000
ENDCHAR

STARTCHAR C137
ENCODING 137
SWIDTH 451 0
DWIDTH 12 0
BBX 12 24 0 -2
BITMAP
0000
0000
0000
0000
1C70
3EF0
1C70
0000
0FC0
3C70
3830
7030
7FF0
7000
7000
7000
3810
3C70
0FC0
0000
0000
0000
0000
0000
ENDCHAR

STARTCHAR C138
ENCODING 138
SWIDTH 451 0
DWIDTH 12 0
BBX 12 24 0 -2
BITMAP
0000
0000
0000
0000
0F00
0780
01C0
0000
0FC0
3C70
3830
7030
7FF0
7000
7000
7000
3810
3870
0FC0
0000
0000
0000
0000
0000
ENDCHAR

STARTCHAR C139
ENCODING 139
SWIDTH 451 0
DWIDTH 12 0
BBX 12 24 0 -2
BITMAP
0000
0000
0000
0000
1CE0
3DF0
1CE0
0000
1F80
0380
0380
0380
0380
0380
0380
0380
0380
0380
1FF0
0000
0000
0000
0000
0000
ENDCHAR

STARTCHAR C140
ENCODING 140
SWIDTH 451 0
DWIDTH 12 0
BBX 12 24 0 -2
BITMAP
0000
0000
0000
0700
0F80
1DC0
0000
0000
1F80
0380
0380
0380
0380
0380
0380
0380
0380
0380
1FF0
0000
0000
0000
0000
0000
ENDCHAR

STARTCHAR C141
ENCODING 141
SWIDTH 451 0
DWIDTH 12 0
BBX 12 24 0 -2
BITMAP
0000
0000
0000
0E00
1F00
03C0
0000
0000
1F80
0380
0380
0380
0380
0380
0380
0380
0380
0380
1FF0
0000
0000
0000
0000
0000
ENDCHAR

STARTCHAR C142
ENCODING 142
SWIDTH 451 0
DWIDTH 12 0
BBX 12 24 0 -2
BITMAP
0E70
1EF0
0E70
0000
0380
0380
0780
05C0
05C0
0DC0
0CE0
0CE0
1CE0
1FE0
1870
3870
3070
3070
FCF0
0000
0000
0000
0000
0000
ENDCHAR

STARTCHAR C143
ENCODING 143
SWIDTH 451 0
DWIDTH 12 0
BBX 12 24 0 -2
BITMAP
0380
06C0
0380
0000
0380
0380
07C0
05C0
05C0
0DC0
0CE0
0CE0
1CE0
1FE0
1870
3870
3070
3070
FCF0
0000
0000
0000
0000
0000
ENDCHAR

STARTCHAR C144
ENCODING 144
SWIDTH 451 0
DWIDTH 12 0
BBX 12 24 0 -2
BITMAP
01C0
03E0
0F00
0000
7FF0
1C30
1C10
1C00
1CC0
1CC0
1FC0
1CC0
1CC0
1C00
1C00
1C00
1C10
1C30
7FF0
0000
0000
0000
0000
0000
ENDCHAR

STARTCHAR C145
ENCODING 145
SWIDTH 451 0
DWIDTH 12 0
BBX 12 24 0 -2
BITMAP
0000
0000
0000
0000
0000
0000
0000
0000
7DF0
C730
0730
0730
0730
7FF0
E700
E700
E700
E710
7DF0
0000
0000
0000
0000
0000
ENDCHAR

STARTCHAR C146
ENCODING 146
SWIDTH 451 0
DWIDTH 12 0
BBX 12 24 0 -2
BITMAP
0000
0000
0000
0000
03F0
07D0
05C0
05C0
0DC0
0DD0
0DF0
1DD0
1FC0
19C0
19C0
39C0
31C0
31D0
7BF0
0000
0000
0000
0000
0000
ENDCHAR

STARTCHAR C147
ENCODING 147
SWIDTH 451 0
DWIDTH 12 0
BBX 12 24 0 -2
BITMAP
0000
0000
0000
0700
0F80
1DC0
0000
0000
0FC0
3CF0
3870
7030
7030
7030
7030
7030
3870
3CF0
0FC0
0000
0000
0000
0000
0000
ENDCHAR

STARTCHAR C148
ENCODING 148
SWIDTH 451 0
DWIDTH 12 0
BBX 12 24 0 -2
BITMAP
0000
0000
0000
0000
38E0
7DF0
38E0
0000
0FC0
3CF0
3870
7030
7030
7030
7030
7030
3870
3CF0
0FC0
0000
0000
0000
0000
0000
ENDCHAR

STARTCHAR C149
ENCODING 149
SWIDTH 451 0
DWIDTH 12 0
BBX 12 24 0 -2
BITMAP
0000
0000
0000
0000
1F00
0780
01C0
0000
0FC0
3CF0
3870
7030
7030
7030
7030
7030
3870
3CF0
0FC0
0000
0000
0000
0000
0000
ENDCHAR

STARTCHAR C150
ENCODING 150
SWIDTH 451 0
DWIDTH 12 0
BBX 12 24 0 -2
BITMAP
0000
0000
0000
0700
0F80
1DC0
0000
0000
78F0
3870
3870
3870
3870
3870
3870
3870
3870
1CF0
07B0
0000
0000
0000
0000
0000
ENDCHAR

STARTCHAR C151
ENCODING 151
SWIDTH 451 0
DWIDTH 12 0
BBX 12 24 0 -2
BITMAP
0000
0000
0000
0E00
1F00
03C0
0000
0000
78F0
3870
3870
3870
3870
3870
3870
3870
3870
1CF0
07B0
0000
0000
0000
0000
0000
ENDCHAR

STARTCHAR C152
ENCODING 152
SWIDTH 451 0
DWIDTH 12 0
BBX 12 24 0 -2
BITMAP
0000
0000
0000
0000
0E70
1EF0
0E70
0000
7CF0
3830
3830
1C70
1C60
0E60
0EE0
06C0
07C0
03C0
0380
0380
7300
7700
3E00
0000
ENDCHAR

STARTCHAR C153
ENCODING 153
SWIDTH 451 0
DWIDTH 12 0
BBX 12 24 0 -2
BITMAP
1C70
3EF0
1C70
0000
07C0
1C70
3810
3800
7000
7000
7000
7000
7000
7000
7000
3800
3810
1C70
07C0
0000
0000
0000
0000
0000
ENDCHAR

STARTCHAR C154
ENCODING 154
SWIDTH 451 0
DWIDTH 12 0
BBX 12 24 0 -2
BITMAP
1C70
3EF0
1C70
0000
0000
F8F0
7030
7030
7030
7030
7030
7030
7030
7030
7030
7030
7030
3860
0FC0
0000
0000
0000
0000
0000
ENDCHAR

STARTCHAR C155
ENCODING 155
SWIDTH 451 0
DWIDTH 12 0
BBX 12 24 0 -2
BITMAP
0000
0000
0000
0000
0000
0000
0380
0380
0FE0
3BB0
3B90
7380
7380
7380
7380
3B80
3B90
1B70
07C0
0380
0380
0000
0000
0000
ENDCHAR

STARTCHAR C156
ENCODING 156
SWIDTH 451 0
DWIDTH 12 0
BBX 12 24 0 -2
BITMAP
0000
0000
0000
0000
07C0
0EE0
1DE0
1CC0
1C00
1C00
7FC0
0E00
0E00
3E00
E700
E700
E380
E7D0
3E70
0000
0000
0000
0000
0000
ENDCHAR

STARTCHAR C157
ENCODING 157
SWIDTH 451 0
DWIDTH 12 0
BBX 12 24 0 -2
BITMAP
0000
0000
0000
0000
FCF0
3860
38E0
1CC0
1DC0
0D80
7FF0
0700
7FF0
0700
0700
0700
0700
0700
1FC0
0000
0000
0000
0000
0000
ENDCHAR

STARTCHAR C158
ENCODING 158
SWIDTH 451 0
DWIDTH 12 0
BBX 12 24 0 -2
BITMAP
0000
0000
0000
0000
7FC0
3870
3830
3830
3830
3830
3870
3FC0
3860
38E0
39F0
38E0
38E0
38D0
7C70
0000
0000
0000
0000
0000
ENDCHAR

STARTCHAR C159
ENCODING 159
SWIDTH 451 0
DWIDTH 12 0
BBX 12 24 0 -2
BITMAP
0000
0000
00F0
01B0
03B0
0380
0380
0380
0380
1FF0
0380
0380
0380
0380
0380
3380
7B80
7B80
7700
3700
1E00
0000
0000
0000
ENDCHAR

STARTCHAR C160
ENCODING 160
SWIDTH 451 0
DWIDTH 12 0
BBX 12 24 0 -2
BITMAP
0000
0000
0000
01E0
03F0
0F00
0000
0000
0F80
38E0
7070
7070
07F0
3C70
7070
7070
7070
3870
0FB0
0000
0000
0000
0000
0000
ENDCHAR

STARTCHAR C161
ENCODING 161
SWIDTH 451 0
DWIDTH 12 0
BBX 12 24 0 -2
BITMAP
0000
0000
0000
01C0
07E0
1F00
0000
0000
0F80
0380
0380
0380
0380
0380
0380
0380
0380
0380
0FE0
0000
0000
0000
0000
0000
ENDCHAR

STARTCHAR C162
ENCODING 162
SWIDTH 451 0
DWIDTH 12 0
BBX 12 24 0 -2
BITMAP
0000
0000
0000
01C0
03E0
0F00
0000
0000
0FC0
3C60
3870
7000
7000
7000
7000
7000
3830
3860
0FC0
0000
0000
0000
0000
0000
ENDCHAR

STARTCHAR C163
ENCODING 163
SWIDTH 451 0
DWIDTH 12 0
BBX 12 24 0 -2
BITMAP
0000
0000
0000
01C0
03E0
0F00
0000
0000
78F0
3870
3870
3870
3870
3870
3870
3870
3870
1CF0
07B0
0000
0000
0000
0000
0000
ENDCHAR

STARTCHAR C164
ENCODING 164
SWIDTH 451 0
DWIDTH 12 0
BBX 12 24 0 -2
BITMAP
0000
0000
0000
0000
07B0
1CE0
0000
0000
77C0
3CE0
3870
3870
3870
3870
3870
3870
3870
3870
7EF0
0000
0000
0000
0000
0000
ENDCHAR

STARTCHAR C165
ENCODING 165
SWIDTH 451 0
DWIDTH 12 0
BBX 12 24 0 -2
BITMAP
0F30
39E0
0000
0000
F8F0
3C30
3C30
2E30
2E30
3730
3730
33B0
33B0
31B0
31B0
30F0
30F0
3070
FC70
0000
0000
0000
0000
0000
ENDCHAR

STARTCHAR C166
ENCODING 166
SWIDTH 451 0
DWIDTH 12 0
BBX 12 24 0 -2
BITMAP
0000
0000
0000
0000
0FE0
3870
0070
0FF0
3870
3870
3870
3870
0FB0
0000
3FF0
0000
0000
0000
0000
0000
0000
0000
0000
0000
ENDCHAR

STARTCHAR C167
ENCODING 167
SWIDTH 451 0
DWIDTH 12 0
BBX 12 24 0 -2
BITMAP
0000
0000
0000
0000
0FC0
3870
7030
7030
7030
7030
7030
3870
0FC0
0000
7FF0
0000
0000
0000
0000
0000
0000
0000
0000
0000
ENDCHAR

STARTCHAR C168
ENCODING 168
SWIDTH 451 0
DWIDTH 12 0
BBX 12 24 0 -2
BITMAP
0000
0000
0000
0180
03C0
03C0
0180
0000
0000
0180
0180
0180
0300
0700
0E00
1C00
3870
3870
3830
1C70
07C0
0000
0000
0000
ENDCHAR

STARTCHAR C169
ENCODING 169
SWIDTH 451 0
DWIDTH 12 0
BBX 12 24 0 -2
BITMAP
0000
0000
0000
0000
0000
0000
0000
0000
7FF0
7FF0
7000
7000
7000
7000
7000
7000
0000
0000
0000
0000
0000
0000
0000
0000
ENDCHAR

STARTCHAR C170
ENCODING 170
SWIDTH 451 0
DWIDTH 12 0
BBX 12 24 0 -2
BITMAP
0000
0000
0000
0000
0000
0000
0000
0000
FFF0
FFF0
0030
0030
0030
0030
0030
0030
0000
0000
0000
0000
0000
0000
0000
0000
ENDCHAR

STARTCHAR C171
ENCODING 171
SWIDTH 451 0
DWIDTH 12 0
BBX 12 24 0 -2
BITMAP
0000
0030
1830
7870
3870
38E0
38E0
39C0
7DC0
0380
0380
0700
0700
0EF0
0DB0
1C30
1C70
38E0
39D0
71F0
7000
0000
0000
0000
ENDCHAR

STARTCHAR C172
ENCODING 172
SWIDTH 451 0
DWIDTH 12 0
BBX 12 24 0 -2
BITMAP
0000
0030
1830
7870
3870
38E0
38E0
39C0
7DC0
0380
0380
0700
0770
0EF0
0EF0
1DF0
1B70
3BF0
3870
70F0
7000
0000
0000
0000
ENDCHAR

STARTCHAR C173
ENCODING 173
SWIDTH 451 0
DWIDTH 12 0
BBX 12 24 0 -2
BITMAP
0000
0000
0300
0780
0300
0000
0000
0000
0300
0300
0300
0300
0780
0780
0780
0780
0780
0780
0780
0780
0780
0300
0000
0000
ENDCHAR

STARTCHAR C174
ENCODING 174
SWIDTH 451 0
DWIDTH 12 0
BBX 12 24 0 -2
BITMAP
0000
0000
0000
0000
0000
0000
0000
0310
0730
0E70
1CE0
39C0
7380
39C0
1CE0
0E70
0730
0310
0000
0000
0000
0000
0000
0000
ENDCHAR

STARTCHAR C175
ENCODING 175
SWIDTH 451 0
DWIDTH 12 0
BBX 12 24 0 -2
BITMAP
0000
0000
0000
0000
0000
0000
0000
6300
7380
39C0
1CE0
0E70
0730
0E70
1CE0
39C0
7380
6300
0000
0000
0000
0000
0000
0000
ENDCHAR

STARTCHAR C176
ENCODING 176
SWIDTH 451 0
DWIDTH 12 0
BBX 12 24 0 -2
BITMAP
CCC0
0000
3330
0000
CCC0
0000
3330
0000
CCC0
0000
3330
0000
CCC0
0000
3330
0000
CCC0
0000
3330
0000
CCC0
0000
3330
0000
ENDCHAR

STARTCHAR C177
ENCODING 177
SWIDTH 451 0
DWIDTH 12 0
BBX 12 24 0 -2
BITMAP
AAB0
0000
AAB0
0000
AAB0
0000
AAB0
0000
AAB0
0000
AAB0
0000
AAB0
0000
AAB0
0000
AAB0
0000
AAB0
0000
AAB0
0000
AAB0
0000
ENDCHAR

STARTCHAR C178
ENCODING 178
SWIDTH 451 0
DWIDTH 12 0
BBX 12 24 0 -2
BITMAP
AAB0
6660
AAB0
1990
AAB0
6660
AAB0
1990
AAB0
6660
AAB0
1990
AAB0
6660
AAB0
1990
AAB0
6660
AAB0
1990
AAB0
6660
AAB0
1990
ENDCHAR

STARTCHAR C179
ENCODING 179
SWIDTH 451 0
DWIDTH 12 0
BBX 12 24 0 -2
BITMAP
0700
0700
0700
0700
0700
0700
0700
0700
0700
0700
0700
0700
0700
0700
0700
0700
0700
0700
0700
0700
0700
0700
0700
0700
ENDCHAR

STARTCHAR C180
ENCODING 180
SWIDTH 451 0
DWIDTH 12 0
BBX 12 24 0 -2
BITMAP
0700
0700
0700
0700
0700
0700
0700
0700
0700
0700
0700
FF00
FF00
0700
0700
0700
0700
0700
0700
0700
0700
0700
0700
0700
ENDCHAR

STARTCHAR C181
ENCODING 181
SWIDTH 451 0
DWIDTH 12 0
BBX 12 24 0 -2
BITMAP
0700
0700
0700
0700
0700
0700
0700
0700
0700
FF00
FF00
0700
0700
FF00
FF00
0700
0700
0700
0700
0700
0700
0700
0700
0700
ENDCHAR

STARTCHAR C182
ENCODING 182
SWIDTH 451 0
DWIDTH 12 0
BBX 12 24 0 -2
BITMAP
1DC0
1DC0
1DC0
1DC0
1DC0
1DC0
1DC0
1DC0
1DC0
1DC0
1DC0
FDC0
FDC0
1DC0
1DC0
1DC0
1DC0
1DC0
1DC0
1DC0
1DC0
1DC0
1DC0
1DC0
ENDCHAR

STARTCHAR C183
ENCODING 183
SWIDTH 451 0
DWIDTH 12 0
BBX 12 24 0 -2
BITMAP
0000
0000
0000
0000
0000
0000
0000
0000
0000
0000
0000
FFC0
FFC0
1DC0
1DC0
1DC0
1DC0
1DC0
1DC0
1DC0
1DC0
1DC0
1DC0
1DC0
ENDCHAR

STARTCHAR C184
ENCODING 184
SWIDTH 451 0
DWIDTH 12 0
BBX 12 24 0 -2
BITMAP
0000
0000
0000
0000
0000
0000
0000
0000
0000
FF00
FF00
0700
0700
FF00
FF00
0700
0700
0700
0700
0700
0700
0700
0700
0700
ENDCHAR

STARTCHAR C185
ENCODING 185
SWIDTH 451 0
DWIDTH 12 0
BBX 12 24 0 -2
BITMAP
1DC0
1DC0
1DC0
1DC0
1DC0
1DC0
1DC0
1DC0
1DC0
FDC0
FDC0
01C0
01C0
FDC0
FDC0
1DC0
1DC0
1DC0
1DC0
1DC0
1DC0
1DC0
1DC0
1DC0
ENDCHAR

STARTCHAR C186
ENCODING 186
SWIDTH 451 0
DWIDTH 12 0
BBX 12 24 0 -2
BITMAP
1DC0
1DC0
1DC0
1DC0
1DC0
1DC0
1DC0
1DC0
1DC0
1DC0
1DC0
1DC0
1DC0
1DC0
1DC0
1DC0
1DC0
1DC0
1DC0
1DC0
1DC0
1DC0
1DC0
1DC0
ENDCHAR

STARTCHAR C187
ENCODING 187
SWIDTH 451 0
DWIDTH 12 0
BBX 12 24 0 -2
BITMAP
0000
0000
0000
0000
0000
0000
0000
0000
0000
FFC0
FFC0
01C0
01C0
FDC0
FDC0
1DC0
1DC0
1DC0
1DC0
1DC0
1DC0
1DC0
1DC0
1DC0
ENDCHAR

STARTCHAR C188
ENCODING 188
SWIDTH 451 0
DWIDTH 12 0
BBX 12 24 0 -2
BITMAP
1DC0
1DC0
1DC0
1DC0
1DC0
1DC0
1DC0
1DC0
1DC0
FDC0
FDC0
01C0
01C0
FFC0
FFC0
0000
0000
0000
0000
0000
0000
0000
0000
0000
ENDCHAR

STARTCHAR C189
ENCODING 189
SWIDTH 451 0
DWIDTH 12 0
BBX 12 24 0 -2
BITMAP
1DC0
1DC0
1DC0
1DC0
1DC0
1DC0
1DC0
1DC0
1DC0
1DC0
1DC0
FFC0
FFC0
0000
0000
0000
0000
0000
0000
0000
0000
0000
0000
0000
ENDCHAR

STARTCHAR C190
ENCODING 190
SWIDTH 451 0
DWIDTH 12 0
BBX 12 24 0 -2
BITMAP
0700
0700
0700
0700
0700
0700
0700
0700
0700
FF00
FF00
0700
0700
FF00
FF00
0000
0000
0000
0000
0000
0000
0000
0000
0000
ENDCHAR

STARTCHAR C191
ENCODING 191
SWIDTH 451 0
DWIDTH 12 0
BBX 12 24 0 -2
BITMAP
0000
0000
0000
0000
0000
0000
0000
0000
0000
0000
0000
FF00
FF00
0700
0700
0700
0700
0700
0700
0700
0700
0700
0700
0700
ENDCHAR

STARTCHAR C192
ENCODING 192
SWIDTH 451 0
DWIDTH 12 0
BBX 12 24 0 -2
BITMAP
0700
0700
0700
0700
0700
0700
0700
0700
0700
0700
0700
07F0
07F0
0000
0000
0000
0000
0000
0000
0000
0000
0000
0000
0000
ENDCHAR

STARTCHAR C193
ENCODING 193
SWIDTH 451 0
DWIDTH 12 0
BBX 12 24 0 -2
BITMAP
0700
0700
0700
0700
0700
0700
0700
0700
0700
0700
0700
FFF0
FFF0
0000
0000
0000
0000
0000
0000
0000
0000
0000
0000
0000
ENDCHAR

STARTCHAR C194
ENCODING 194
SWIDTH 451 0
DWIDTH 12 0
BBX 12 24 0 -2
BITMAP
0000
0000
0000
0000
0000
0000
0000
0000
0000
0000
0000
FFF0
FFF0
0700
0700
0700
0700
0700
0700
0700
0700
0700
0700
0700
ENDCHAR

STARTCHAR C195
ENCODING 195
SWIDTH 451 0
DWIDTH 12 0
BBX 12 24 0 -2
BITMAP
0700
0700
0700
0700
0700
0700
0700
0700
0700
0700
0700
07F0
07F0
0700
0700
0700
0700
0700
0700
0700
0700
0700
0700
0700
ENDCHAR

STARTCHAR C196
ENCODING 196
SWIDTH 451 0
DWIDTH 12 0
BBX 12 24 0 -2
BITMAP
0000
0000
0000
0000
0000
0000
0000
0000
0000
0000
0000
FFF0
FFF0
0000
0000
0000
0000
0000
0000
0000
0000
0000
0000
0000
ENDCHAR

STARTCHAR C197
ENCODING 197
SWIDTH 451 0
DWIDTH 12 0
BBX 12 24 0 -2
BITMAP
0700
0700
0700
0700
0700
0700
0700
0700
0700
0700
0700
FFF0
FFF0
0700
0700
0700
0700
0700
0700
0700
0700
0700
0700
0700
ENDCHAR

STARTCHAR C198
ENCODING 198
SWIDTH 451 0
DWIDTH 12 0
BBX 12 24 0 -2
BITMAP
0700
0700
0700
0700
0700
0700
0700
0700
0700
07F0
07F0
0700
0700
07F0
07F0
0700
0700
0700
0700
0700
0700
0700
0700
0700
ENDCHAR

STARTCHAR C199
ENCODING 199
SWIDTH 451 0
DWIDTH 12 0
BBX 12 24 0 -2
BITMAP
1DC0
1DC0
1DC0
1DC0
1DC0
1DC0
1DC0
1DC0
1DC0
1DC0
1DC0
1DF0
1DF0
1DC0
1DC0
1DC0
1DC0
1DC0
1DC0
1DC0
1DC0
1DC0
1DC0
1DC0
ENDCHAR

STARTCHAR C200
ENCODING 200
SWIDTH 451 0
DWIDTH 12 0
BBX 12 24 0 -2
BITMAP
1DC0
1DC0
1DC0
1DC0
1DC0
1DC0
1DC0
1DC0
1DC0
1DF0
1DF0
1C00
1C00
1FF0
1FF0
0000
0000
0000
0000
0000
0000
0000
0000
0000
ENDCHAR

STARTCHAR C201
ENCODING 201
SWIDTH 451 0
DWIDTH 12 0
BBX 12 24 0 -2
BITMAP
0000
0000
0000
0000
0000
0000
0000
0000
0000
1FF0
1FF0
1C00
1C00
1DF0
1DF0
1DC0
1DC0
1DC0
1DC0
1DC0
1DC0
1DC0
1DC0
1DC0
ENDCHAR

STARTCHAR C202
ENCODING 202
SWIDTH 451 0
DWIDTH 12 0
BBX 12 24 0 -2
BITMAP
1DC0
1DC0
1DC0
1DC0
1DC0
1DC0
1DC0
1DC0
1DC0
FDF0
FDF0
0000
0000
FFF0
FFF0
0000
0000
0000
0000
0000
0000
0000
0000
0000
ENDCHAR

STARTCHAR C203
ENCODING 203
SWIDTH 451 0
DWIDTH 12 0
BBX 12 24 0 -2
BITMAP
0000
0000
0000
0000
0000
0000
0000
0000
0000
FFF0
FFF0
0000
0000
FDF0
FDF0
1DC0
1DC0
1DC0
1DC0
1DC0
1DC0
1DC0
1DC0
1DC0
ENDCHAR

STARTCHAR C204
ENCODING 204
SWIDTH 451 0
DWIDTH 12 0
BBX 12 24 0 -2
BITMAP
1DC0
1DC0
1DC0
1DC0
1DC0
1DC0
1DC0
1DC0
1DC0
1DF0
1DF0
1C00
1C00
1DF0
1DF0
1DC0
1DC0
1DC0
1DC0
1DC0
1DC0
1DC0
1DC0
1DC0
ENDCHAR

STARTCHAR C205
ENCODING 205
SWIDTH 451 0
DWIDTH 12 0
BBX 12 24 0 -2
BITMAP
0000
0000
0000
0000
0000
0000
0000
0000
0000
FFF0
FFF0
0000
0000
FFF0
FFF0
0000
0000
0000
0000
0000
0000
0000
0000
0000
ENDCHAR

STARTCHAR C206
ENCODING 206
SWIDTH 451 0
DWIDTH 12 0
BBX 12 24 0 -2
BITMAP
1DC0
1DC0
1DC0
1DC0
1DC0
1DC0
1DC0
1DC0
1DC0
FDF0
FDF0
0000
0000
FDF0
FDF0
1DC0
1DC0
1DC0
1DC0
1DC0
1DC0
1DC0
1DC0
1DC0
ENDCHAR

STARTCHAR C207
ENCODING 207
SWIDTH 451 0
DWIDTH 12 0
BBX 12 24 0 -2
BITMAP
0700
0700
0700
0700
0700
0700
0700
0700
0700
FFF0
FFF0
0000
0000
FFF0
FFF0
0000
0000
0000
0000
0000
0000
0000
0000
0000
ENDCHAR

STARTCHAR C208
ENCODING 208
SWIDTH 451 0
DWIDTH 12 0
BBX 12 24 0 -2
BITMAP
1DC0
1DC0
1DC0
1DC0
1DC0
1DC0
1DC0
1DC0
1DC0
1DC0
1DC0
FFF0
FFF0
0000
0000
0000
0000
0000
0000
0000
0000
0000
0000
0000
ENDCHAR

STARTCHAR C209
ENCODING 209
SWIDTH 451 0
DWIDTH 12 0
BBX 12 24 0 -2
BITMAP
0000
0000
0000
0000
0000
0000
0000
0000
0000
FFF0
FFF0
0000
0000
FFF0
FFF0
0700
0700
0700
0700
0700
0700
0700
0700
0700
ENDCHAR

STARTCHAR C210
ENCODING 210
SWIDTH 451 0
DWIDTH 12 0
BBX 12 24 0 -2
BITMAP
0000
0000
0000
0000
0000
0000
0000
0000
0000
0000
0000
FFF0
FFF0
1DC0
1DC0
1DC0
1DC0
1DC0
1DC0
1DC0
1DC0
1DC0
1DC0
1DC0
ENDCHAR

STARTCHAR C211
ENCODING 211
SWIDTH 451 0
DWIDTH 12 0
BBX 12 24 0 -2
BITMAP
1DC0
1DC0
1DC0
1DC0
1DC0
1DC0
1DC0
1DC0
1DC0
1DC0
1DC0
1FF0
1FF0
0000
0000
0000
0000
0000
0000
0000
0000
0000
0000
0000
ENDCHAR

STARTCHAR C212
ENCODING 212
SWIDTH 451 0
DWIDTH 12 0
BBX 12 24 0 -2
BITMAP
0700
0700
0700
0700
0700
0700
0700
0700
0700
07F0
07F0
0700
0700
07F0
07F0
0000
0000
0000
0000
0000
0000
0000
0000
0000
ENDCHAR

STARTCHAR C213
ENCODING 213
SWIDTH 451 0
DWIDTH 12 0
BBX 12 24 0 -2
BITMAP
0000
0000
0000
0000
0000
0000
0000
0000
0000
07F0
07F0
0700
0700
07F0
07F0
0700
0700
0700
0700
0700
0700
0700
0700
0700
ENDCHAR

STARTCHAR C214
ENCODING 214
SWIDTH 451 0
DWIDTH 12 0
BBX 12 24 0 -2
BITMAP
0000
0000
0000
0000
0000
0000
0000
0000
0000
0000
0000
1FF0
1FF0
1DC0
1DC0
1DC0
1DC0
1DC0
1DC0
1DC0
1DC0
1DC0
1DC0
1DC0
ENDCHAR

STARTCHAR C215
ENCODING 215
SWIDTH 451 0
DWIDTH 12 0
BBX 12 24 0 -2
BITMAP
1DC0
1DC0
1DC0
1DC0
1DC0
1DC0
1DC0
1DC0
1DC0
1DC0
1DC0
FFF0
FFF0
1DC0
1DC0
1DC0
1DC0
1DC0
1DC0
1DC0
1DC0
1DC0
1DC0
1DC0
ENDCHAR

STARTCHAR C216
ENCODING 216
SWIDTH 451 0
DWIDTH 12 0
BBX 12 24 0 -2
BITMAP
0700
0700
0700
0700
0700
0700
0700
0700
0700
FFF0
FFF0
0700
0700
FFF0
FFF0
0700
0700
0700
0700
0700
0700
0700
0700
0700
ENDCHAR

STARTCHAR C217
ENCODING 217
SWIDTH 451 0
DWIDTH 12 0
BBX 12 24 0 -2
BITMAP
0700
0700
0700
0700
0700
0700
0700
0700
0700
0700
0700
FF00
FF00
0000
0000
0000
0000
0000
0000
0000
0000
0000
0000
0000
ENDCHAR

STARTCHAR C218
ENCODING 218
SWIDTH 451 0
DWIDTH 12 0
BBX 12 24 0 -2
BITMAP
0000
0000
0000
0000
0000
0000
0000
0000
0000
0000
0000
07F0
07F0
0700
0700
0700
0700
0700
0700
0700
0700
0700
0700
0700
ENDCHAR

STARTCHAR C219
ENCODING 219
SWIDTH 451 0
DWIDTH 12 0
BBX 12 24 0 -2
BITMAP
FFF0
FFF0
FFF0
FFF0
FFF0
FFF0
FFF0
FFF0
FFF0
FFF0
FFF0
FFF0
FFF0
FFF0
FFF0
FFF0
FFF0
FFF0
FFF0
FFF0
FFF0
FFF0
FFF0
FFF0
ENDCHAR

STARTCHAR C220
ENCODING 220
SWIDTH 451 0
DWIDTH 12 0
BBX 12 24 0 -2
BITMAP
0000
0000
0000
0000
0000
0000
0000
0000
0000
0000
0000
0000
FFF0
FFF0
FFF0
FFF0
FFF0
FFF0
FFF0
FFF0
FFF0
FFF0
FFF0
FFF0
ENDCHAR

STARTCHAR C221
ENCODING 221
SWIDTH 451 0
DWIDTH 12 0
BBX 12 24 0 -2
BITMAP
FE00
FE00
FE00
FE00
FE00
FE00
FE00
FE00
FE00
FE00
FE00
FE00
FE00
FE00
FE00
FE00
FE00
FE00
FE00
FE00
FE00
FE00
FE00
FE00
ENDCHAR

STARTCHAR C222
ENCODING 222
SWIDTH 451 0
DWIDTH 12 0
BBX 12 24 0 -2
BITMAP
03F0
03F0
03F0
03F0
03F0
03F0
03F0
03F0
03F0
03F0
03F0
03F0
03F0
03F0
03F0
03F0
03F0
03F0
03F0
03F0
03F0
03F0
03F0
03F0
ENDCHAR

STARTCHAR C223
ENCODING 223
SWIDTH 451 0
DWIDTH 12 0
BBX 12 24 0 -2
BITMAP
FFF0
FFF0
FFF0
FFF0
FFF0
FFF0
FFF0
FFF0
FFF0
FFF0
FFF0
FFF0
0000
0000
0000
0000
0000
0000
0000
0000
0000
0000
0000
0000
ENDCHAR

STARTCHAR C224
ENCODING 224
SWIDTH 451 0
DWIDTH 12 0
BBX 12 24 0 -2
BITMAP
0000
0000
0000
0000
0000
0000
0000
0000
07D0
1E70
3870
7070
7060
E0E0
E0E0
E0C0
E1C0
73C0
1EF0
0000
0000
0000
0000
0000
ENDCHAR

STARTCHAR C225
ENCODING 225
SWIDTH 451 0
DWIDTH 12 0
BBX 12 24 0 -2
BITMAP
0000
0000
0000
0000
07C0
1EE0
1C70
3870
3870
38E0
39E0
3870
3830
3830
3830
3830
3830
3B70
7DE0
0000
0000
0000
0000
0000
ENDCHAR

STARTCHAR C226
ENCODING 226
SWIDTH 451 0
DWIDTH 12 0
BBX 12 24 0 -2
BITMAP
0000
0000
0000
0000
7FF0
3830
3810
3800
3800
3800
3800
3800
3800
3800
3800
3800
3800
3800
7E00
0000
0000
0000
0000
0000
ENDCHAR

STARTCHAR C227
ENCODING 227
SWIDTH 451 0
DWIDTH 12 0
BBX 12 24 0 -2
BITMAP
0000
0000
0000
0000
0000
0000
0000
0000
1FF0
7FF0
CEE0
0EE0
0EE0
1DC0
1DC0
1DC0
39C0
71D0
E0F0
0000
0000
0000
0000
0000
ENDCHAR

STARTCHAR C228
ENCODING 228
SWIDTH 451 0
DWIDTH 12 0
BBX 12 24 0 -2
BITMAP
0000
0000
0000
0000
7FF0
3C10
1E10
0F00
0780
03C0
01C0
0380
0700
0E00
1C00
3810
7010
7FF0
7FF0
0000
0000
0000
0000
0000
ENDCHAR

STARTCHAR C229
ENCODING 229
SWIDTH 451 0
DWIDTH 12 0
BBX 12 24 0 -2
BITMAP
0000
0000
0000
0000
0000
0000
0030
0070
03F0
0EE0
1C70
3830
3830
7030
7030
7070
3870
3DE0
0F80
0000
0000
0000
0000
0000
ENDCHAR

STARTCHAR C230
ENCODING 230
SWIDTH 451 0
DWIDTH 12 0
BBX 12 24 0 -2
BITMAP
0000
0000
0000
0000
0000
0000
0000
0000
1C70
1C70
1C70
1860
18E0
38E0
38E0
30C0
30C0
39D0
6F70
6000
6000
E000
E000
0000
ENDCHAR

STARTCHAR C231
ENCODING 231
SWIDTH 451 0
DWIDTH 12 0
BBX 12 24 0 -2
BITMAP
0000
0000
0000
0000
0000
0000
0000
0000
0FF0
7FE0
E380
0380
0700
0700
0E00
0E00
0E00
0E60
03C0
0000
0000
0000
0000
0000
ENDCHAR

STARTCHAR C232
ENCODING 232
SWIDTH 451 0
DWIDTH 12 0
BBX 12 24 0 -2
BITMAP
0000
0000
0000
0000
3FE0
0700
0F80
36E0
7770
E730
E730
E730
E730
E730
7770
36E0
0F80
0700
3FE0
0000
0000
0000
0000
0000
ENDCHAR

STARTCHAR C233
ENCODING 233
SWIDTH 451 0
DWIDTH 12 0
BBX 12 24 0 -2
BITMAP
0000
0000
0000
0000
0780
1CE0
3870
3870
7030
7030
77B0
77B0
7030
7030
7030
3870
3870
1CE0
0780
0000
0000
0000
0000
0000
ENDCHAR

STARTCHAR C234
ENCODING 234
SWIDTH 451 0
DWIDTH 12 0
BBX 12 24 0 -2
BITMAP
0000
0000
0000
0000
0780
1CE0
3870
3030
7030
7030
7030
7030
3030
3870
1CE0
0CC0
6590
6590
7DF0
0000
0000
0000
0000
0000
ENDCHAR

STARTCHAR C235
ENCODING 235
SWIDTH 451 0
DWIDTH 12 0
BBX 12 24 0 -2
BITMAP
0000
0000
0000
0000
0000
01E0
03B0
0190
03C0
0E70
1C30
3830
3830
7030
7030
7070
3870
38E0
0F80
0000
0000
0000
0000
0000
ENDCHAR

STARTCHAR C236
ENCODING 236
SWIDTH 451 0
DWIDTH 12 0
BBX 12 24 0 -2
BITMAP
0000
0000
0000
0000
0000
0000
0000
3DE0
7FF0
E730
E730
E730
7FF0
3DE0
0000
0000
0000
0000
0000
0000
0000
0000
0000
0000
ENDCHAR

STARTCHAR C237
ENCODING 237
SWIDTH 451 0
DWIDTH 12 0
BBX 12 24 0 -2
BITMAP
0000
0000
0000
0000
01C0
01C0
01C0
0FC0
3BE0
7370
63B0
E3B0
E730
E730
6730
7770
36E0
1FC0
0E00
0E00
0E00
0000
0000
0000
ENDCHAR

STARTCHAR C238
ENCODING 238
SWIDTH 451 0
DWIDTH 12 0
BBX 12 24 0 -2
BITMAP
0000
0000
0000
0000
0000
0000
0000
03F0
0E00
1C00
3800
3800
7FE0
7000
7000
7000
7000
3870
0FC0
0000
0000
0000
0000
0000
ENDCHAR

STARTCHAR C239
ENCODING 239
SWIDTH 451 0
DWIDTH 12 0
BBX 12 24 0 -2
BITMAP
0000
0000
0000
0000
0000
0F80
3FE0
38E0
7070
7070
7070
7070
7070
7070
7070
7070
7070
7070
7070
0000
0000
0000
0000
0000
ENDCHAR

STARTCHAR C240
ENCODING 240
SWIDTH 451 0
DWIDTH 12 0
BBX 12 24 0 -2
BITMAP
0000
0000
0000
0000
0000
0000
0000
7FF0
7FF0
0000
7FF0
7FF0
0000
7FF0
7FF0
0000
0000
0000
0000
0000
0000
0000
0000
0000
ENDCHAR

STARTCHAR C241
ENCODING 241
SWIDTH 451 0
DWIDTH 12 0
BBX 12 24 0 -2
BITMAP
0000
0000
0000
0000
0000
0000
0700
0700
0700
3FE0
3FE0
0700
0700
0700
0000
0000
3FE0
3FE0
0000
0000
0000
0000
0000
0000
ENDCHAR

STARTCHAR C242
ENCODING 242
SWIDTH 451 0
DWIDTH 12 0
BBX 12 24 0 -2
BITMAP
0000
0000
0000
0000
0000
0000
3800
7E00
1F80
03E0
00F0
03E0
0F80
7E00
3800
0000
7FF0
7FF0
0000
0000
0000
0000
0000
0000
ENDCHAR

STARTCHAR C243
ENCODING 243
SWIDTH 451 0
DWIDTH 12 0
BBX 12 24 0 -2
BITMAP
0000
0000
0000
0000
0000
0000
00E0
03F0
0FC0
3E00
7800
3E00
0F80
03F0
00E0
0000
7FF0
7FF0
0000
0000
0000
0000
0000
0000
ENDCHAR

STARTCHAR C244
ENCODING 244
SWIDTH 451 0
DWIDTH 12 0
BBX 12 24 0 -2
BITMAP
0000
0000
0000
0000
01F0
03B0
0310
0730
0770
0730
0700
0700
0700
0700
0700
0700
0700
0700
0700
0700
0700
0700
0700
0700
ENDCHAR

STARTCHAR C245
ENCODING 245
SWIDTH 451 0
DWIDTH 12 0
BBX 12 24 0 -2
BITMAP
0700
0700
0700
0700
0700
0700
0700
0700
0700
0700
0700
0700
6700
F700
F700
E700
E600
6E00
3C00
0000
0000
0000
0000
0000
ENDCHAR

STARTCHAR C246
ENCODING 246
SWIDTH 451 0
DWIDTH 12 0
BBX 12 24 0 -2
BITMAP
0000
0000
0000
0000
0000
0700
0F80
0F80
0700
0000
7FF0
7FF0
0000
0700
0F80
0F80
0700
0000
0000
0000
0000
0000
0000
0000
ENDCHAR

STARTCHAR C247
ENCODING 247
SWIDTH 451 0
DWIDTH 12 0
BBX 12 24 0 -2
BITMAP
0000
0000
0000
0000
0000
0000
0000
1E10
3730
73F0
00E0
0000
1E10
3730
73F0
00E0
0000
0000
0000
0000
0000
0000
0000
0000
ENDCHAR

STARTCHAR C248
ENCODING 248
SWIDTH 451 0
DWIDTH 12 0
BBX 12 24 0 -2
BITMAP
0000
3C00
6600
6600
6600
3C00
0000
0000
0000
0000
0000
0000
0000
0000
0000
0000
0000
0000
0000
0000
0000
0000
0000
0000
ENDCHAR

STARTCHAR C249
ENCODING 249
SWIDTH 451 0
DWIDTH 12 0
BBX 12 24 0 -2
BITMAP
0000
0000
0000
0000
0000
0000
0000
0000
0000
0F80
1FC0
1FC0
1FC0
0F80
0000
0000
0000
0000
0000
0000
0000
0000
0000
0000
ENDCHAR

STARTCHAR C250
ENCODING 250
SWIDTH 451 0
DWIDTH 12 0
BBX 12 24 0 -2
BITMAP
0000
0000
0000
0000
0000
0000
0000
0000
0000
0000
0700
0F80
0F80
0700
0000
0000
0000
0000
0000
0000
0000
0000
0000
0000
ENDCHAR

STARTCHAR C251
ENCODING 251
SWIDTH 451 0
DWIDTH 12 0
BBX 12 24 0 -2
BITMAP
0000
01F0
0180
0180
0180
0180
0180
0380
0380
0300
0300
0300
0700
0700
7600
7600
B600
3600
1E00
1C00
0C00
0C00
0C00
0000
ENDCHAR

STARTCHAR C252
ENCODING 252
SWIDTH 451 0
DWIDTH 12 0
BBX 12 24 0 -2
BITMAP
0000
0000
6F80
39C0
39C0
39C0
39C0
39C0
7BE0
0000
0000
0000
0000
0000
0000
0000
0000
0000
0000
0000
0000
0000
0000
0000
ENDCHAR

STARTCHAR C253
ENCODING 253
SWIDTH 451 0
DWIDTH 12 0
BBX 12 24 0 -2
BITMAP
0000
0000
1E00
7380
7380
0700
1C00
3800
7380
7F00
0000
0000
0000
0000
0000
0000
0000
0000
0000
0000
0000
0000
0000
0000
ENDCHAR

STARTCHAR C254
ENCODING 254
SWIDTH 451 0
DWIDTH 12 0
BBX 12 24 0 -2
BITMAP
0000
0000
0000
0000
0000
0000
0000
0000
0000
7FF0
7FF0
7FF0
7FF0
7FF0
7FF0
0000
0000
0000
0000
0000
0000
0000
0000
0000
ENDCHAR

STARTCHAR C255
ENCODING 255
SWIDTH 451 0
DWIDTH 12 0
BBX 12 24 0 -2
BITMAP
0000
0000
0000
0000
0000
0000
0000
0000
0000
0000
0000
0000
0000
0000
0000
0000
0000
0000
0000
0000
0000
0000
0000
0000
ENDCHAR
ENDFONT
